<svg xmlns="http://www.w3.org/2000/svg" viewBox="0 0 1600 720" width="1600" height="720" role="img" aria-label="International Shipping">
  <defs>
    <linearGradient id="b1112352267" x1="0" y1="0" x2="1" y2="1">
      <stop offset="0" stop-color="#1f9d55"/>
      <stop offset="0.6" stop-color="#16181d"/>
      <stop offset="1" stop-color="#0a1024"/>
    </linearGradient>
    <radialGradient id="b1112352267b" cx="0.7" cy="0.3" r="0.8">
      <stop offset="0" stop-color="rgba(255,255,255,0.18)"/>
      <stop offset="1" stop-color="rgba(255,255,255,0)"/>
    </radialGradient>
  </defs>
  <rect width="1600" height="720" fill="url(#b1112352267)"/>
  <rect width="1600" height="720" fill="url(#b1112352267b)"/>
  <g opacity="0.12" stroke="#fff" stroke-width="2">
    <line x1="0" y1="0" x2="300" y2="720"/><line x1="200" y1="0" x2="500" y2="720"/><line x1="400" y1="0" x2="700" y2="720"/><line x1="600" y1="0" x2="900" y2="720"/><line x1="800" y1="0" x2="1100" y2="720"/><line x1="1000" y1="0" x2="1300" y2="720"/><line x1="1200" y1="0" x2="1500" y2="720"/><line x1="1400" y1="0" x2="1700" y2="720"/><line x1="1600" y1="0" x2="1900" y2="720"/>
  </g>
  <g opacity="0.10">
    <circle cx="1250" cy="200" r="50" fill="none" stroke="#fff" stroke-width="3"/><circle cx="1370" cy="290" r="64" fill="none" stroke="#fff" stroke-width="3"/><circle cx="1250" cy="380" r="78" fill="none" stroke="#fff" stroke-width="3"/><circle cx="1370" cy="470" r="92" fill="none" stroke="#fff" stroke-width="3"/><circle cx="1250" cy="560" r="106" fill="none" stroke="#fff" stroke-width="3"/>
  </g>
  <text x="1470" y="660" text-anchor="end" font-family="Public Sans, Arial, sans-serif" font-style="italic" font-size="48" font-weight="900" fill="#ffffff" opacity="0.22">mi-<tspan fill="#e11b22">या</tspan>-bi</text>
</svg>